Coordinates
version=1
nRows=13
nColumns=40
inDegrees=yes

Units are S.I. units (second, meters, Newtons, ...)
Angles are in degrees.

endheader
time	pelvis_tilt	pelvis_list	pelvis_rotation	pelvis_tx	pelvis_ty	pelvis_tz	hip_flexion_r	hip_adduction_r	hip_rotation_r	knee_angle_r	knee_angle_r_beta	ankle_angle_r	subtalar_angle_r	mtp_angle_r	hip_flexion_l	hip_adduction_l	hip_rotation_l	knee_angle_l	knee_angle_l_beta	ankle_angle_l	subtalar_angle_l	mtp_angle_l	lumbar_extension	lumbar_bending	lumbar_rotation	arm_flex_r	arm_add_r	arm_rot_r	elbow_flex_r	pro_sup_r	wrist_flex_r	wrist_dev_r	arm_flex_l	arm_add_l	arm_rot_l	elbow_flex_l	pro_sup_l	wrist_flex_l	wrist_dev_l
     50.67500000	     -4.00627665	     -4.75019130	     -1.16180534	      1.10399016	      0.93522114	      0.44100517	     37.63908153	     -4.30009059	     -5.33141678	     58.78507874	     58.78507874	     -1.24572577	    -16.78935675	      2.64544883	     12.00745606	     -4.33072425	     -6.13022779	     19.61217711	     19.61217711	     13.65622986	    -10.93561597	     -0.53430927	    -11.43501774	      7.88985808	      2.11440902	      5.52250245	    -11.37173107	    -14.77131822	     26.89823362	     47.14734356	      0.00000000	      0.00000000	     21.79522413	    -16.93134303	      2.37203739	     52.41964626	     46.29355990	      0.00000000	      0.00000000
     50.68657143	     -3.96046321	     -4.75020565	     -1.27143839	      1.10291722	      0.93547410	      0.44091816	     37.94275034	     -4.14182177	     -5.64586518	     55.30846024	     55.30846024	     -1.14240090	    -16.25337805	      2.72792750	     11.00057202	     -4.29589165	     -6.32992736	     18.94919329	     18.94919329	     13.92510762	    -10.60328662	     -0.63249712	    -11.63600902	      8.06085518	      2.34414172	      3.41501639	    -11.37284376	    -15.04784461	     25.07963533	     47.22388979	      0.00000000	      0.00000000	     23.50537752	    -17.17167172	      1.73626696	     54.31435981	     46.39366491	      0.00000000	      0.00000000
     50.69814286	     -3.99406967	     -4.76537699	     -1.36868730	      1.10197472	      0.93540670	      0.44097245	     38.06989544	     -3.95914052	     -6.06533376	     51.41293381	     51.41293381	     -1.51283640	    -15.56334556	      1.19255885	     10.11468437	     -4.31755517	     -6.65057137	     18.36214960	     18.36214960	     14.11585542	    -10.11029083	     -1.29161351	    -11.70115350	      8.23161452	      1.81425503	      2.44042114	    -11.16124595	    -16.34107910	     21.71633095	     47.47418359	      0.00000000	      0.00000000	     24.14663792	    -17.95844084	      0.36627643	     57.59838197	     46.58774642	      0.00000000	      0.00000000
     50.70971429	     -4.04295844	     -4.74035210	     -1.46251539	      1.10113487	      0.93522240	      0.44112421	     38.08471523	     -3.76495765	     -6.48491252	     47.39262770	     47.39262770	     -1.27686336	    -14.23645734	      1.32034802	      9.21955475	     -4.26497036	     -6.82465632	     17.74306618	     17.74306618	     14.43131192	     -9.76542883	     -1.40216863	    -11.74865461	      8.34449932	      1.88857510	      0.26807908	    -11.16909899	    -16.52479839	     20.60012489	     47.52272567	      0.00000000	      0.00000000	     25.74628179	    -18.31117500	     -0.10325254	     59.05316379	     46.66131415	      0.00000000	      0.00000000
     50.72128571	     -4.05352089	     -4.56179283	     -1.56926494	      1.10054880	      0.93484667	      0.44132374	     37.89751992	     -3.72344430	     -6.94720220	     43.22422791	     43.22422791	     -1.15600606	    -12.51468392	      0.88378505	      8.21676753	     -4.07488045	     -7.25126085	     17.03798303	     17.03798303	     14.73695370	     -9.10335107	     -1.79774340	    -11.81466349	      8.27398866	      2.14961265	     -1.91456772	    -11.12522239	    -16.94085067	     19.40898853	     47.60699252	      0.00000000	      0.00000000	     27.10625880	    -18.48600437	     -0.72043961	     61.46911068	     46.76280363	      0.00000000	      0.00000000
     50.73285714	     -4.10603660	     -4.53646137	     -1.64381708	      1.10014717	      0.93434043	      0.44170417	     37.48597463	     -3.45278110	     -7.50193889	     38.79187854	     38.79187854	     -0.96352612	    -10.55310583	      1.01145377	      7.30731686	     -4.04343650	     -7.50079342	     16.44303739	     16.44303739	     15.05362098	     -8.66297520	     -2.05668177	    -11.73536462	      8.40307911	      1.94711217	     -3.97508135	    -11.08479487	    -17.17211744	     18.61585218	     47.65127537	      0.00000000	      0.00000000	     28.37626274	    -19.05198471	     -1.20628237	     62.99899009	     46.83473462	      0.00000000	      0.00000000
     50.74442857	     -4.08085586	     -4.32569518	     -1.75966946	      1.10007286	      0.93358654	      0.44228825	     36.88112912	     -3.34703298	     -8.10505127	     34.41422838	     34.41422838	     -0.90513592	     -8.22296039	      0.33535317	      6.20965096	     -3.85878700	     -8.11612299	     15.69547926	     15.69547926	     15.21518549	     -7.76671768	     -3.06108253	    -11.82277238	      8.22547440	      1.65162259	     -6.02203999	    -10.88559510	    -18.33734880	     18.43569162	     47.79650936	      0.00000000	      0.00000000	     28.87372337	    -19.76796751	     -2.30207931	     66.59496813	     47.00013671	      0.00000000	      0.00000000
     50.75600000	     -4.12366579	     -4.15794430	     -1.83366843	      1.10019390	      0.93262107	      0.44299296	     36.20178661	     -3.09840118	     -8.62502913	     30.09700490	     30.09700490	     -0.68448533	     -6.09011264	      0.97399754	      5.21903970	     -3.67299023	     -8.37267788	     15.03179230	     15.03179230	     15.58239370	     -7.30441103	     -3.28559072	    -11.65041829	      8.12309693	      1.49700060	     -8.00309227	    -10.79123070	    -18.52413484	     17.80762190	     47.82785798	      0.00000000	      0.00000000	     30.12971545	    -20.23624102	     -2.67256683	     67.79590378	     47.05792953	      0.00000000	      0.00000000
     50.76757143	     -3.97090267	     -3.90414128	     -1.91088514	      1.10074128	      0.93162506	      0.44382083	     35.25988674	     -2.97101208	     -9.34422148	     26.12379227	     26.12379227	     -0.32416825	     -3.62772607	      1.85175018	      3.92517711	     -3.40089841	     -8.79221957	     14.25937337	     14.25937337	     15.96544086	     -6.54411599	     -3.64857124	    -11.67753409	      7.87343592	      1.49856589	    -10.15505527	    -10.69520405	    -18.78430625	     17.42045773	     47.85409347	      0.00000000	      0.00000000	     31.29196639	    -20.60787952	     -3.02864952	     69.42684501	     47.12160637	      0.00000000	      0.00000000
     50.77914286	     -3.72848349	     -3.49535791	     -2.01782578	      1.10166916	      0.93039603	      0.44473346	     34.40838415	     -3.08633148	    -10.26224760	     23.02433702	     23.02433702	      0.66755067	     -0.70949146	      3.89174460	      2.44793737	     -2.99298827	     -9.59108049	     13.37112726	     13.37112726	     16.28973555	     -5.22930739	     -4.45356225	    -11.83072613	      7.44741472	      1.54988409	    -12.55755755	    -10.43148406	    -19.47587939	     18.16817940	     47.87206627	      0.00000000	      0.00000000	     32.14003297	    -21.03354980	     -3.38832133	     72.08369138	     47.21176026	      0.00000000	      0.00000000
     50.79071429	     -3.57628926	     -3.30635229	     -2.05565397	      1.10274145	      0.92893575	      0.44595571	     33.46381555	     -2.81959339	    -10.88968298	     20.03592788	     20.03592788	      1.10447226	      0.74768782	      5.37482083	      1.21056532	     -2.81032019	     -9.88895574	     12.76127285	     12.76127285	     16.72374701	     -4.63019065	     -4.79731547	    -11.72534123	      7.25069477	      1.35342980	    -14.52896818	    -10.32543217	    -19.78701821	     18.16490985	     47.88300157	      0.00000000	      0.00000000	     33.03431888	    -21.54691900	     -3.64290517	     73.33319561	     47.26311703	      0.00000000	      0.00000000
     50.80228571	     -3.42277967	     -2.99254075	     -2.13421480	      1.10393182	      0.92720357	      0.44725968	     32.91840300	     -2.84080757	    -11.74790433	     18.40786403	     18.40786403	      2.93036394	      2.48344328	     10.25177635	      0.00251571	     -2.55710958	    -10.66106221	     12.23752111	     12.23752111	     17.19611974	     -3.35705361	     -5.52248974	    -11.69954394	      6.90940314	      1.30136105	    -17.19188634	     -9.97200916	    -20.95856012	     20.52783005	     47.84523471	      0.00000000	      0.00000000	     33.63545032	    -22.20371868	     -3.70212576	     75.65832955	     47.35111068	      0.00000000	      0.00000000
     50.81385714	     -3.24610813	     -2.71308467	     -2.17155916	      1.10538347	      0.92542657	      0.44872719	     32.13106865	     -2.73548278	    -12.30790268	     16.80733929	     16.80733929	      3.20444552	      3.03646078	     10.86005260	     -1.26449493	     -2.27007085	    -10.89251445	     11.66429227	     11.66429227	     17.68293197	     -2.84906103	     -5.61188928	    -11.53124323	      6.57120102	      1.21123884	    -18.78353206	     -9.79937063	    -21.08265992	     20.13198513	     47.85401246	      0.00000000	      0.00000000	     34.60640849	    -22.48419725	     -3.87422628	     76.48417365	     47.39014483	      0.00000000	      0.00000000
